<svg width="36" height="36" viewBox="0 0 36 36" fill="none" xmlns="http://www.w3.org/2000/svg">
<path d="M18 36C27.9411 36 36 27.9411 36 18C36 8.05887 27.9411 0 18 0C8.05887 0 0 8.05887 0 18C0 27.9411 8.05887 36 18 36Z" fill="#FDDD48"/>
<path d="M11.6173 8.49495C11.9787 8.43277 12.3481 8.42362 12.7136 8.44545C12.8098 8.45062 12.9037 8.42475 12.9982 8.40983C13.3018 8.45235 13.6093 8.43915 13.9117 8.4C14.2555 8.42017 14.6002 8.4633 14.9439 8.40983C15.3214 8.4639 15.7052 8.44433 16.0809 8.52255C16.3444 8.5899 16.6244 8.6175 16.8576 8.76945C17.0684 8.7735 17.2413 8.9334 17.4367 9.0048C17.6526 9.19297 17.9212 9.33277 18.081 9.57847C18.3662 9.89437 18.6051 10.2598 18.7213 10.6735C18.7465 10.8133 18.8794 10.906 18.8835 11.0521C18.9018 11.2489 19.0267 11.4296 18.9877 11.6311C18.9402 11.9107 19.1103 12.1685 19.0427 12.451C19.0158 12.4585 18.9625 12.4735 18.9356 12.481L19.0582 12.4746C19.0851 12.615 19.0267 12.6817 18.8829 12.6754C18.9172 12.6731 18.986 12.6697 19.0204 12.6673C19.041 12.8359 19.0444 13.0092 18.9746 13.168C19.0015 13.1709 19.0553 13.1778 19.0823 13.1806C19.0564 13.1887 19.0054 13.2048 18.9797 13.2129C18.9763 13.2889 18.9533 13.3613 18.9253 13.4315C18.8944 13.4557 18.8331 13.504 18.8021 13.5282C18.805 13.492 18.8108 13.4194 18.8136 13.3832C18.7632 13.3959 18.6624 13.4212 18.612 13.4338C18.2477 13.4879 17.8805 13.4097 17.5162 13.4632C17.2499 13.496 16.9715 13.3942 16.7149 13.4816C16.4904 13.4125 16.2103 13.5081 16.0408 13.3038C16.0666 13.248 16.0935 13.1922 16.1209 13.1369C16.0534 13.1628 16.0265 13.2359 15.9847 13.2889C15.9589 13.2238 15.9308 13.1605 15.8987 13.0984C15.889 12.8613 15.8935 12.6242 15.8924 12.3877C15.8414 12.165 15.7836 11.9423 15.7006 11.7294C15.4801 11.3491 15.0253 11.1919 14.6059 11.1937C14.1827 11.1994 13.7605 11.1546 13.339 11.1781C13.0279 11.1183 12.7301 11.253 12.4237 11.2754C12.2707 11.3801 12.0491 11.4014 11.9632 11.5867C11.8841 11.7415 11.7868 11.8859 11.7106 12.0419C11.6837 12.4424 11.608 12.84 11.6264 13.2446C11.6476 13.5161 11.6275 13.8528 11.8647 14.0392C12.0061 14.2026 12.1419 14.3845 12.3567 14.4547C12.6649 14.5393 12.9587 14.717 13.2909 14.6612C13.4919 14.7625 13.7273 14.7596 13.9432 14.7245C14.0572 14.8011 14.197 14.747 14.3185 14.793C14.4811 14.8586 14.661 14.8166 14.8277 14.8666C15.0585 14.9311 15.3111 14.9104 15.5264 15.0261C15.5968 15.0761 15.6748 15.0244 15.7475 15.0105C15.8455 15.0589 15.9119 15.1849 16.0322 15.1756C16.2344 15.1584 16.4222 15.2441 16.6096 15.3074C16.9326 15.4772 17.3181 15.502 17.6027 15.7477C17.7207 15.7942 17.8318 15.8575 17.9086 15.9622C17.9773 16.0066 18.0604 16.036 18.1131 16.1027C18.2712 16.3276 18.4906 16.5199 18.5421 16.8047C18.3262 17.2132 18.128 17.6374 17.8525 18.0097C17.7786 18.2881 17.5666 18.4965 17.4561 18.7588C17.1961 19.1599 17.0134 19.607 16.7367 19.9978C16.6285 20.164 16.5764 20.3608 16.4623 20.5243C16.3151 20.7527 16.2356 21.0324 16.0202 21.209C15.9137 21.4041 15.8414 21.6176 15.7154 21.8017C15.6988 21.7758 15.6662 21.7229 15.6502 21.6964C15.7132 21.8524 15.5683 21.9726 15.5219 22.1113C15.464 22.1441 15.4136 22.1884 15.3678 22.2356C15.3918 22.2828 15.417 22.3306 15.4422 22.3777L15.3311 22.3662C15.3162 22.6349 15.094 22.8013 15.0081 23.0389C14.8248 23.2524 14.6891 23.5084 14.6089 23.7783C14.5854 23.7714 14.5384 23.757 14.5149 23.7496C14.527 23.7806 14.5516 23.8422 14.5642 23.8732C14.5355 23.8675 14.4782 23.8566 14.4502 23.8514C14.4616 23.898 14.4845 23.9918 14.496 24.039C14.4508 24.0418 14.3602 24.0482 14.315 24.0517C14.3396 24.0568 14.3883 24.0666 14.413 24.0718C14.4026 24.1224 14.3826 24.2237 14.3723 24.2743C14.3534 24.272 14.3161 24.2674 14.2972 24.2651C14.2669 24.3463 14.2382 24.4268 14.2154 24.5108C14.189 24.5039 14.1357 24.4901 14.1088 24.4832C14.1117 24.5327 14.118 24.6311 14.1214 24.6806L14.0681 24.6639C14.0533 24.7433 14.0046 24.7957 13.9221 24.8204L13.984 24.8618L14.0166 24.9505L13.8608 24.8774C13.9558 25.0247 13.7857 25.1427 13.7136 25.2549C13.8487 25.3159 13.6987 25.3406 13.634 25.3751C13.6013 25.5184 13.5389 25.6496 13.4301 25.7497C13.3561 25.9252 13.2147 26.0691 13.1775 26.2607C13.012 26.4259 12.9438 26.652 12.8321 26.8517C12.7811 26.8597 12.7296 26.866 12.6786 26.8707C12.7433 26.5127 12.9512 26.2072 13.0807 25.8729C13.1471 25.7693 13.1603 25.6479 13.1523 25.5282C13.2038 25.4862 13.2553 25.4448 13.3069 25.4033C13.288 25.0954 13.5085 24.8566 13.5859 24.5736C13.615 24.4205 13.772 24.2944 13.6867 24.1328C13.6752 24.1552 13.6529 24.2007 13.6414 24.2231C13.4536 24.1 13.2084 24.1621 12.9964 24.1673C12.7318 24.1081 12.4598 24.138 12.1917 24.1155C11.8801 24.1017 11.5863 23.986 11.2718 24.0085C11.0474 23.9061 10.8028 23.8577 10.5834 23.7386C10.5748 23.6673 10.5364 23.631 10.4677 23.6293C10.3399 23.5993 10.2374 23.5073 10.1195 23.4538C10.0541 23.36 9.94875 23.3082 9.86115 23.2397C9.65662 23.2006 9.4533 23.0492 9.40687 22.8398C9.30322 22.8024 9.24938 22.6994 9.17033 22.6286C9.17318 22.6039 9.17782 22.5538 9.18067 22.5291C9.15487 22.5331 9.10275 22.5417 9.07695 22.5457C9.05865 22.4824 9.03862 22.4197 9.01627 22.3582L8.96932 22.3627C8.9487 22.2494 8.90633 22.1424 8.87595 22.0324C8.78655 21.7833 8.65717 21.5514 8.57062 21.3017C8.66287 21.1981 8.60617 21.0468 8.49277 20.9892C8.50822 20.9875 8.53972 20.9835 8.55577 20.9812C8.52885 20.5847 8.51513 20.1882 8.50253 19.7911C8.50365 19.7002 8.49157 19.5437 8.62162 19.5512C8.49045 19.3849 8.6205 19.2112 8.7534 19.1001C9.0999 19.1053 9.45097 19.111 9.79297 19.0621C10.1097 19.1122 10.4339 19.1197 10.7529 19.0863C10.9957 19.1335 11.265 19.0592 11.4849 19.2002C11.6275 19.2589 11.6413 19.4321 11.6275 19.565C11.6562 19.5656 11.7135 19.5667 11.7427 19.5679L11.6315 19.6007C11.6579 19.6675 11.686 19.7704 11.7776 19.7204C11.777 19.8154 11.6871 19.8619 11.6293 19.9218C11.639 19.9788 11.6584 20.0915 11.6682 20.1479C11.7031 20.2654 11.6894 20.3931 11.7341 20.5076C11.7942 20.5174 11.8543 20.5266 11.9151 20.5352C11.8738 20.5352 11.7925 20.5358 11.7518 20.5358C11.8234 20.8154 11.9861 21.1521 12.304 21.1929C12.5165 21.2671 12.7227 21.358 12.9473 21.3961C12.9742 21.3754 13.0279 21.3339 13.0549 21.3132C13.1013 21.3524 13.1477 21.3914 13.1947 21.4312C13.7227 21.4346 14.2469 21.4208 14.7738 21.3944C15.0413 21.3581 15.2888 21.2378 15.5551 21.1975C15.8014 21.0214 15.9428 20.7406 16.0396 20.461C16.102 20.2843 16.0477 20.0927 16.1015 19.9143C16.1668 19.6692 16.0603 19.4252 16.0655 19.1789C16.0562 19.0828 16.0877 18.9332 15.9623 18.8998C15.9474 18.8049 15.9205 18.7128 15.8793 18.6265C15.8403 18.649 15.802 18.6714 15.7636 18.6933C15.7699 18.6593 15.7819 18.5914 15.7876 18.5575C15.7069 18.4774 15.625 18.3912 15.5069 18.3721C15.4651 18.3227 15.4239 18.2732 15.3839 18.2231C15.3151 18.1944 15.2441 18.18 15.1702 18.1811C15.0814 18.0609 14.9439 18.0413 14.8042 18.0517L14.8173 17.9947C14.7205 17.9918 14.6232 17.9832 14.5355 17.9383C14.2147 17.9216 13.8917 17.9746 13.5733 17.9078C13.4386 17.8773 13.2994 17.8721 13.1621 17.8756C13.1402 17.8497 13.0961 17.7985 13.0738 17.7731C12.7605 17.7829 12.4455 17.7271 12.1551 17.6092C11.9317 17.5868 11.7375 17.4572 11.5164 17.4233C11.3623 17.402 11.2094 17.3726 11.0622 17.322C10.9666 17.2748 10.868 17.2328 10.7609 17.2196C10.5554 17.1166 10.3526 16.9998 10.1321 16.933C10.0439 16.8191 9.9012 16.7828 9.7878 16.704C9.59707 16.5089 9.44587 16.2748 9.23505 16.101C9.1497 15.9013 9.01455 15.7252 8.94637 15.518C8.9292 15.5169 8.89373 15.514 8.87595 15.5128C8.9172 15.411 8.87992 15.3679 8.76367 15.3828C8.7963 15.2994 8.78655 15.2119 8.77395 15.1262C8.7339 15.0698 8.69437 15.0139 8.65545 14.9581C8.68005 14.9415 8.72985 14.9075 8.75452 14.8909C8.7339 14.8868 8.69265 14.8787 8.67202 14.8747C8.68807 14.8057 8.6766 14.743 8.6388 14.6871C8.6319 14.6377 8.61765 14.5375 8.61075 14.4874C8.6256 14.4851 8.65545 14.4811 8.6703 14.4788C8.61705 14.3707 8.55345 14.2665 8.51677 14.1515C8.50252 14.0023 8.5317 13.8481 8.47267 13.706C8.46637 13.6582 8.45377 13.5628 8.44747 13.5144C8.47732 13.5086 8.53627 13.4971 8.56552 13.4908C8.54602 13.4649 8.5065 13.4131 8.48647 13.3873L8.44005 13.3999C8.46007 13.2814 8.46412 13.1605 8.4 13.0546C8.42347 13.0518 8.47042 13.0466 8.4939 13.0437C8.49562 12.8245 8.4561 12.607 8.42348 12.3917L8.48872 12.4257C8.49217 12.3169 8.50417 12.2093 8.51392 12.1018C8.42055 12.0574 8.43435 11.9389 8.50477 11.8802C8.50762 11.7789 8.50935 11.677 8.51513 11.5758C8.62163 11.4337 8.45782 11.1109 8.70067 11.0797C8.68522 11.051 8.65425 10.9929 8.6388 10.9641L8.73105 10.9843C8.73105 10.8801 8.73675 10.7759 8.77455 10.6775C8.7969 10.6954 8.84272 10.7299 8.8656 10.7477C8.95267 10.6678 8.8788 10.5256 8.88855 10.4232C8.91893 10.4186 8.9796 10.4088 9.01057 10.4036C9.01342 10.3495 9.01852 10.2414 9.02145 10.1873C9.00307 10.1827 8.967 10.174 8.9487 10.1695C9.14002 10.1332 9.18697 9.92257 9.26887 9.7764C9.3204 9.66367 9.42525 9.59175 9.51802 9.51577C9.66465 9.2919 9.8943 9.14002 10.1068 8.98462C10.6086 8.81895 11.0897 8.57325 11.6173 8.49495Z" fill="#252634"/>
<path d="M23.7332 11.8952C24.5185 11.8094 25.3192 11.8572 26.1113 11.8601C26.5146 11.8785 26.9167 11.8296 27.3176 11.8946C27.1951 12.02 26.9803 12.0177 26.8869 12.1852C26.1349 13.2497 25.3793 14.3114 24.625 15.3736C24.5929 15.3385 24.5609 15.304 24.5288 15.2706C24.5156 15.2914 24.4898 15.3322 24.4766 15.3529C24.5208 15.3759 24.5637 15.4001 24.6073 15.4254C24.5362 15.5031 24.4675 15.583 24.4114 15.6717C24.3707 15.7298 24.3295 15.7873 24.2888 15.8449C24.2791 15.8104 24.2596 15.7413 24.2498 15.7068C24.2687 15.8035 24.2728 15.9077 24.1926 15.9801C24.0173 16.193 23.8953 16.4485 23.6988 16.6424C23.5888 16.8674 23.4239 17.0579 23.2893 17.2674C23.2675 17.261 23.224 17.2489 23.2022 17.2426C23.2183 17.2587 23.2498 17.2898 23.2658 17.3059C22.9198 17.7668 22.6129 18.256 22.2583 18.7105C22.2228 18.8348 22.2382 18.9614 22.2778 19.0828C22.3379 19.103 22.3981 19.1242 22.4582 19.1455C22.5825 19.4287 22.8322 19.6376 22.945 19.9316C23.0212 19.984 23.0745 20.0587 23.1157 20.1416C23.2795 20.4472 23.4978 20.7211 23.6444 21.037C23.7532 21.2666 24.0196 21.43 24.0184 21.7045L24.1101 21.5578C24.0408 21.6619 24.1141 21.853 24.247 21.8461C24.1972 22.0687 24.4577 22.1769 24.5156 22.3737C24.5385 22.3691 24.5849 22.3605 24.6078 22.3564C24.5912 22.3708 24.5574 22.3996 24.5408 22.414C24.7464 22.6631 24.8541 22.9738 25.0569 23.2242C25.219 23.4475 25.3089 23.7277 25.5448 23.8911C25.5781 24.1253 25.7333 24.3129 25.8788 24.4884C25.9378 24.7076 26.1417 24.8475 26.2122 25.065C26.3622 25.1392 26.3708 25.3165 26.4596 25.4413C26.5965 25.6537 26.7346 25.866 26.8508 26.0904C27.0215 26.3546 27.2254 26.6008 27.3583 26.8879C27.4304 27.0301 27.3812 27.2919 27.6 27.2942C27.549 27.2999 27.4992 27.3057 27.4488 27.312L27.4774 27.388L27.3938 27.3592L27.4081 27.4271C27.0324 27.5692 26.6194 27.4553 26.2316 27.5111C26.0209 27.5439 25.802 27.5008 25.5976 27.5727C25.4068 27.6532 25.2178 27.5284 25.0231 27.5439C24.8456 27.4887 24.6273 27.51 24.4961 27.3592C24.4246 27.2764 24.322 27.2407 24.2241 27.2032C23.995 27.0824 23.9394 26.8097 23.7778 26.625C23.6908 26.5012 23.5619 26.3948 23.551 26.2325C23.4038 26.0299 23.2618 25.8234 23.1386 25.6059C23.0235 25.4621 22.9159 25.3101 22.8608 25.1317H22.8271C22.7956 25.0609 22.7743 24.9867 22.7532 24.913L22.6987 24.9033C22.7068 24.882 22.7222 24.8389 22.7302 24.8176C22.5894 24.8342 22.5882 24.6766 22.5315 24.5943C22.5103 24.5966 22.4691 24.6012 22.4485 24.6035C22.4576 24.5741 22.4765 24.5155 22.4863 24.4861L22.4055 24.5166C22.4233 24.4199 22.4095 24.3175 22.307 24.2795C22.1678 23.986 21.9524 23.7052 21.7543 23.4371C21.6111 23.0683 21.3464 22.7627 21.1654 22.4157C21.0193 22.2874 20.9804 22.0808 20.8229 21.9623C20.7571 21.7891 20.6689 21.6233 20.5349 21.4933C20.4953 21.4139 20.4672 21.3304 20.4478 21.2447C20.4151 21.2217 20.3498 21.1757 20.3177 21.1526C20.2009 21.2591 20.0176 21.3259 19.9987 21.5042C19.9019 21.5773 19.7868 21.6446 19.7616 21.7747C19.5038 21.9335 19.4093 22.2609 19.171 22.4439C18.8583 22.6781 18.7987 23.1172 18.8835 23.4779L18.8056 23.4348C18.8761 23.5677 18.8102 23.7254 18.8377 23.8681C18.7672 23.8595 18.6968 23.8549 18.6263 23.8537C18.6939 23.8784 18.7621 23.9026 18.8285 23.932C18.8325 24.1679 18.8383 24.4044 18.8652 24.6386C18.8325 24.981 18.8618 25.3245 18.8526 25.6675C18.8159 25.996 18.8348 26.3281 18.7947 26.6566C18.7764 26.8793 18.8451 27.1279 18.7111 27.327C18.5833 27.4732 18.3743 27.4881 18.1979 27.5296C18.1435 27.5008 18.0868 27.499 18.0312 27.5238C17.8886 27.5606 17.7499 27.4605 17.6074 27.4956C17.3124 27.5572 17.0134 27.4749 16.7162 27.5088C16.4601 27.5158 16.1955 27.5698 15.948 27.4749C15.8552 27.3926 15.8043 27.274 15.7453 27.1687C15.7877 27.1417 15.8306 27.1147 15.873 27.0882C15.8272 27.0807 15.7344 27.0658 15.6886 27.0589C15.731 27.0335 15.8163 26.9829 15.8593 26.9576C15.8249 26.9668 15.7562 26.9846 15.7223 26.9938C15.7034 26.4765 15.747 25.958 15.7063 25.4419C15.7057 24.8268 15.7103 24.2122 15.6903 23.5976C15.735 23.2921 15.684 22.9768 15.7556 22.6747C15.8484 22.5101 15.9623 22.3576 16.0655 22.1988C16.2711 21.8282 16.4567 21.4467 16.6628 21.0755C16.7981 20.8787 16.9103 20.6687 17.0214 20.4575C17.3015 20.1048 17.4378 19.6652 17.7042 19.3027C17.8622 18.9896 18.057 18.6979 18.2197 18.3883C18.281 18.3077 18.3463 18.2278 18.3583 18.123C18.4339 18.0609 18.4688 17.9705 18.494 17.879C18.5708 17.8054 18.6274 17.7168 18.6544 17.6132C18.769 17.5448 18.8079 17.4124 18.86 17.2984C18.8978 17.2087 18.9855 17.1402 18.9775 17.0343C19.2547 16.7074 19.3835 16.2811 19.6419 15.941C19.844 15.5117 20.0777 15.098 20.3596 14.7159C20.4752 14.5796 20.4821 14.2958 20.7055 14.2981C20.6866 14.3746 20.6522 14.4455 20.6087 14.5111C20.5612 14.7913 20.3298 15.01 20.324 15.3046C20.3074 15.3022 20.2748 15.2965 20.2582 15.2942C20.2696 15.5479 20.0571 15.7281 20.0142 15.9697C19.997 16.0612 19.8624 16.1441 19.9626 16.2281L19.8813 16.1844C19.9048 16.3749 19.7375 16.5067 19.7026 16.6839C19.6435 16.9417 19.5027 17.1667 19.3864 17.3997C19.2873 17.7352 19.0828 18.0304 19.0192 18.3768C18.9682 18.4648 18.9282 18.5586 18.9208 18.6617C18.9035 18.6731 18.8692 18.6967 18.852 18.7082C18.8652 18.8089 18.8789 18.9102 18.9007 19.0097C18.9493 18.7807 19.1229 18.6098 19.1813 18.386C19.2907 18.2485 19.3331 18.0706 19.4511 17.9383C19.541 17.8393 19.5835 17.7127 19.6224 17.5873L19.6539 17.5879C19.7037 17.4854 19.7736 17.3956 19.8698 17.3329C19.9002 17.2696 19.9328 17.2075 19.9695 17.1477C19.9873 17.1356 20.0222 17.1114 20.0399 17.0999C20.3143 16.5711 20.6855 16.1079 21.0045 15.6061C21.1259 15.4663 21.2399 15.3184 21.2932 15.1366C21.4879 14.9771 21.5899 14.7533 21.7176 14.5438C21.8029 14.4041 21.957 14.316 22.0189 14.1606C22.0888 13.9754 22.2463 13.8459 22.3448 13.6784C22.5097 13.3314 22.8391 13.0822 22.9491 12.7082C23.1232 12.6133 23.1764 12.4119 23.2956 12.2652C23.3947 12.0943 23.5705 11.9948 23.7332 11.8952Z" fill="#252634"/>
</svg>
