<svg width="1740" height="3792" viewBox="0 0 1740 3792" fill="none" xmlns="http://www.w3.org/2000/svg">
<g filter="url(#filter0_d)">
<rect x="150" y="130" width="1440" height="3492" rx="36" fill="#252634"/>
<path fill-rule="evenodd" clip-rule="evenodd" d="M920 3016L820 3076V2956L920 3016ZM824.545 3067.58L910.509 3016L824.545 2964.42V3067.58Z" fill="#252634"/>
<path opacity="0.2" fill-rule="evenodd" clip-rule="evenodd" d="M1337.93 1174.87C1404.73 1174.87 1458.87 1120.73 1458.87 1053.93C1458.87 987.144 1404.73 933 1337.93 933C1271.14 933 1217 987.144 1217 1053.93C1217 1120.73 1271.14 1174.87 1337.93 1174.87ZM1340.84 1119.98C1377.14 1119.98 1406.57 1090.56 1406.57 1054.26C1406.57 1017.96 1377.14 988.538 1340.84 988.538C1304.55 988.538 1275.12 1017.96 1275.12 1054.26C1275.12 1090.56 1304.55 1119.98 1340.84 1119.98Z" fill="#FDDD48"/>
<path opacity="0.2" fill-rule="evenodd" clip-rule="evenodd" d="M1354 2673C1420.83 2673 1475 2618.83 1475 2552C1475 2485.17 1420.83 2431 1354 2431C1287.17 2431 1233 2485.17 1233 2552C1233 2618.83 1287.17 2673 1354 2673ZM1356.91 2618.08C1393.23 2618.08 1422.67 2588.64 1422.67 2552.33C1422.67 2516.01 1393.23 2486.57 1356.91 2486.57C1320.59 2486.57 1291.15 2516.01 1291.15 2552.33C1291.15 2588.64 1320.59 2618.08 1356.91 2618.08Z" fill="#FDDD48"/>
<path fill-rule="evenodd" clip-rule="evenodd" d="M270.5 1393C283.479 1393 294 1382.48 294 1369.5C294 1356.52 283.479 1346 270.5 1346C257.521 1346 247 1356.52 247 1369.5C247 1382.48 257.521 1393 270.5 1393ZM270.229 1379.8C275.768 1379.8 280.259 1375.31 280.259 1369.77C280.259 1364.23 275.768 1359.74 270.229 1359.74C264.689 1359.74 260.199 1364.23 260.199 1369.77C260.199 1375.31 264.689 1379.8 270.229 1379.8Z" fill="#FDDD48"/>
<path fill-rule="evenodd" clip-rule="evenodd" d="M447.5 2534C460.479 2534 471 2523.48 471 2510.5C471 2497.52 460.479 2487 447.5 2487C434.521 2487 424 2497.52 424 2510.5C424 2523.48 434.521 2534 447.5 2534ZM447.229 2520.8C452.768 2520.8 457.259 2516.31 457.259 2510.77C457.259 2505.23 452.768 2500.74 447.229 2500.74C441.689 2500.74 437.199 2505.23 437.199 2510.77C437.199 2516.31 441.689 2520.8 447.229 2520.8Z" fill="#FDDD48"/>
<path fill-rule="evenodd" clip-rule="evenodd" d="M1335.5 1330C1348.48 1330 1359 1319.48 1359 1306.5C1359 1293.52 1348.48 1283 1335.5 1283C1322.52 1283 1312 1293.52 1312 1306.5C1312 1319.48 1322.52 1330 1335.5 1330ZM1335.23 1316.8C1340.77 1316.8 1345.26 1312.31 1345.26 1306.77C1345.26 1301.23 1340.77 1296.74 1335.23 1296.74C1329.69 1296.74 1325.2 1301.23 1325.2 1306.77C1325.2 1312.31 1329.69 1316.8 1335.23 1316.8Z" fill="#FDDD48"/>
<path fill-rule="evenodd" clip-rule="evenodd" d="M1365.5 2167C1378.48 2167 1389 2156.48 1389 2143.5C1389 2130.52 1378.48 2120 1365.5 2120C1352.52 2120 1342 2130.52 1342 2143.5C1342 2156.48 1352.52 2167 1365.5 2167ZM1365.23 2153.8C1370.77 2153.8 1375.26 2149.31 1375.26 2143.77C1375.26 2138.23 1370.77 2133.74 1365.23 2133.74C1359.69 2133.74 1355.2 2138.23 1355.2 2143.77C1355.2 2149.31 1359.69 2153.8 1365.23 2153.8Z" fill="#FDDD48"/>
<circle cx="355" cy="1164" r="11" fill="#FDDD48"/>
<circle cx="460" cy="2308" r="11" fill="#FDDD48"/>
<circle cx="1312" cy="1367" r="11" fill="#FDDD48"/>
<circle cx="1294" cy="2164" r="11" fill="#FDDD48"/>
<circle cx="337.5" cy="1197.5" r="3.5" fill="#FDDD48"/>
<circle cx="374.5" cy="2360.5" r="3.5" fill="#FDDD48"/>
</g>
<defs>
<filter id="filter0_d" x="0" y="0" width="1740" height="3792" filterUnits="userSpaceOnUse" color-interpolation-filters="sRGB">
<feFlood flood-opacity="0" result="BackgroundImageFix"/>
<feColorMatrix in="SourceAlpha" type="matrix" values="0 0 0 0 0 0 0 0 0 0 0 0 0 0 0 0 0 0 127 0"/>
<feOffset dy="20"/>
<feGaussianBlur stdDeviation="75"/>
<feColorMatrix type="matrix" values="0 0 0 0 0 0 0 0 0 0 0 0 0 0 0 0 0 0 0.25 0"/>
<feBlend mode="normal" in2="BackgroundImageFix" result="effect1_dropShadow"/>
<feBlend mode="normal" in="SourceGraphic" in2="effect1_dropShadow" result="shape"/>
</filter>
</defs>
</svg>
