<svg width="1440" height="3492" viewBox="0 0 1440 3492" fill="none" xmlns="http://www.w3.org/2000/svg">
<rect width="1440" height="3492" rx="36" fill="#252634"/>
<path opacity="0.2" fill-rule="evenodd" clip-rule="evenodd" d="M1187.93 1044.87C1254.73 1044.87 1308.87 990.725 1308.87 923.935C1308.87 857.144 1254.73 803 1187.93 803C1121.14 803 1067 857.144 1067 923.935C1067 990.725 1121.14 1044.87 1187.93 1044.87ZM1190.84 989.983C1227.14 989.983 1256.57 960.558 1256.57 924.26C1256.57 887.963 1227.14 858.538 1190.84 858.538C1154.55 858.538 1125.12 887.963 1125.12 924.26C1125.12 960.558 1154.55 989.983 1190.84 989.983Z" fill="#FDDD48"/>
<path opacity="0.2" fill-rule="evenodd" clip-rule="evenodd" d="M1204 2543C1270.83 2543 1325 2488.83 1325 2422C1325 2355.17 1270.83 2301 1204 2301C1137.17 2301 1083 2355.17 1083 2422C1083 2488.83 1137.17 2543 1204 2543ZM1206.91 2488.08C1243.23 2488.08 1272.67 2458.64 1272.67 2422.33C1272.67 2386.01 1243.23 2356.57 1206.91 2356.57C1170.59 2356.57 1141.15 2386.01 1141.15 2422.33C1141.15 2458.64 1170.59 2488.08 1206.91 2488.08Z" fill="#FDDD48"/>
<path fill-rule="evenodd" clip-rule="evenodd" d="M120.5 1263C133.479 1263 144 1252.48 144 1239.5C144 1226.52 133.479 1216 120.5 1216C107.521 1216 97 1226.52 97 1239.5C97 1252.48 107.521 1263 120.5 1263ZM120.229 1249.8C125.768 1249.8 130.259 1245.31 130.259 1239.77C130.259 1234.23 125.768 1229.74 120.229 1229.74C114.689 1229.74 110.199 1234.23 110.199 1239.77C110.199 1245.31 114.689 1249.8 120.229 1249.8Z" fill="#FDDD48"/>
<path fill-rule="evenodd" clip-rule="evenodd" d="M297.5 2404C310.479 2404 321 2393.48 321 2380.5C321 2367.52 310.479 2357 297.5 2357C284.521 2357 274 2367.52 274 2380.5C274 2393.48 284.521 2404 297.5 2404ZM297.229 2390.8C302.768 2390.8 307.259 2386.31 307.259 2380.77C307.259 2375.23 302.768 2370.74 297.229 2370.74C291.689 2370.74 287.199 2375.23 287.199 2380.77C287.199 2386.31 291.689 2390.8 297.229 2390.8Z" fill="#FDDD48"/>
<path fill-rule="evenodd" clip-rule="evenodd" d="M1185.5 1200C1198.48 1200 1209 1189.48 1209 1176.5C1209 1163.52 1198.48 1153 1185.5 1153C1172.52 1153 1162 1163.52 1162 1176.5C1162 1189.48 1172.52 1200 1185.5 1200ZM1185.23 1186.8C1190.77 1186.8 1195.26 1182.31 1195.26 1176.77C1195.26 1171.23 1190.77 1166.74 1185.23 1166.74C1179.69 1166.74 1175.2 1171.23 1175.2 1176.77C1175.2 1182.31 1179.69 1186.8 1185.23 1186.8Z" fill="#FDDD48"/>
<path fill-rule="evenodd" clip-rule="evenodd" d="M1215.5 2037C1228.48 2037 1239 2026.48 1239 2013.5C1239 2000.52 1228.48 1990 1215.5 1990C1202.52 1990 1192 2000.52 1192 2013.5C1192 2026.48 1202.52 2037 1215.5 2037ZM1215.23 2023.8C1220.77 2023.8 1225.26 2019.31 1225.26 2013.77C1225.26 2008.23 1220.77 2003.74 1215.23 2003.74C1209.69 2003.74 1205.2 2008.23 1205.2 2013.77C1205.2 2019.31 1209.69 2023.8 1215.23 2023.8Z" fill="#FDDD48"/>
<circle cx="205" cy="1034" r="11" fill="#FDDD48"/>
<circle cx="310" cy="2178" r="11" fill="#FDDD48"/>
<circle cx="1162" cy="1237" r="11" fill="#FDDD48"/>
<circle cx="1144" cy="2034" r="11" fill="#FDDD48"/>
<circle cx="187.5" cy="1067.5" r="3.5" fill="#FDDD48"/>
<circle cx="224.5" cy="2230.5" r="3.5" fill="#FDDD48"/>
</svg>
