<svg width="460" height="402" viewBox="0 0 460 402" fill="none" xmlns="http://www.w3.org/2000/svg">
<g clip-path="url(#clip0)">
<path d="M110.807 79.8024C18.6875 135.659 13.1771 324.251 144.205 320.642C202.795 319.024 219.914 255.189 272.79 232.786C322.431 211.741 365.233 253.944 415.342 206.152C474.387 149.897 482.868 12.3087 395.109 3.11128C356.895 -0.896279 342.161 38.7437 308.775 47.518C241.093 65.3155 179.256 38.3205 110.807 79.8024Z" fill="#252634"/>
<path d="M-0.16748 70.394L272.922 111.241L309.566 149.661L-0.16748 70.394Z" fill="#FDDD48"/>
<path opacity="0.6" d="M-0.16748 70.394L272.922 111.241L309.566 149.661L-0.16748 70.394Z" fill="white"/>
<path d="M-0.16748 70.394L272.922 111.241L260.248 166.799L-0.16748 70.394Z" fill="#FDDD48"/>
<path opacity="0.2" d="M-0.16748 70.394L272.922 111.241L260.248 166.799L-0.16748 70.394Z" fill="#616161"/>
<path d="M254.641 6.07283L270.49 83.2369C270.902 85.2519 270.528 87.3544 269.45 89.0834C268.372 90.8123 266.678 92.0264 264.74 92.4593L123.29 123.823C121.351 124.248 119.328 123.858 117.665 122.738C116.002 121.619 114.833 119.861 114.413 117.849L98.5528 40.6847C98.1441 38.6683 98.521 36.5658 99.6008 34.8374C100.681 33.1089 102.376 31.8954 104.315 31.4623L245.765 0.0988427C247.706 -0.325732 249.729 0.0657978 251.393 1.18775C253.056 2.3097 254.224 4.07068 254.641 6.08528V6.07283Z" fill="#FDDD48"/>
<path opacity="0.4" d="M254.641 6.07283L270.49 83.2369C270.902 85.2519 270.528 87.3544 269.45 89.0834C268.372 90.8123 266.678 92.0264 264.74 92.4593L123.29 123.823C121.351 124.248 119.328 123.858 117.665 122.738C116.002 121.619 114.833 119.861 114.413 117.849L98.5528 40.6847C98.1441 38.6683 98.521 36.5658 99.6008 34.8374C100.681 33.1089 102.376 31.8954 104.315 31.4623L245.765 0.0988427C247.706 -0.325732 249.729 0.0657978 251.393 1.18775C253.056 2.3097 254.224 4.07068 254.641 6.08528V6.07283Z" fill="#888888"/>
<path d="M251.155 1.02032L203.898 61.2954C199.515 66.8838 193.427 70.7502 186.642 72.2552C179.856 73.7603 172.78 72.8136 166.582 69.5719L99.7507 34.5991C100.832 32.9854 102.464 31.8597 104.315 31.4503L245.765 0.0868815C247.611 -0.321282 249.537 0.0122463 251.155 1.02032Z" fill="#FDDD48"/>
<path d="M-0.16748 70.394L225.077 126.014L260.248 166.799L-0.16748 70.394Z" fill="#FDDD48"/>
<path opacity="0.6" d="M-0.16748 70.394L225.077 126.014L260.248 166.799L-0.16748 70.394Z" fill="white"/>
<path d="M81.9963 124.004L81.3909 125.078L106.457 140.333L107.062 139.259L81.9963 124.004Z" fill="#FDDD48"/>
<path d="M118.129 145.984L117.523 147.058L126.537 152.543L127.142 151.47L118.129 145.984Z" fill="#FDDD48"/>
<path d="M-0.16748 70.394L225.077 126.014L181.293 180.838L-0.16748 70.394Z" fill="#FDDD48"/>
<path d="M301.109 200.702C300.805 200.702 300.504 200.643 300.222 200.527L263.542 185.443C262.955 185.197 262.486 184.721 262.236 184.117C261.986 183.513 261.976 182.831 262.209 182.219C262.441 181.608 262.897 181.117 263.477 180.854C264.057 180.59 264.713 180.576 265.303 180.813L301.995 195.898C302.514 196.111 302.945 196.505 303.214 197.014C303.483 197.522 303.572 198.112 303.467 198.681C303.362 199.251 303.069 199.764 302.638 200.133C302.208 200.502 301.667 200.703 301.109 200.702Z" fill="#FDDD48"/>
<path d="M298.94 178.847C298.64 178.845 298.343 178.781 298.066 178.66L278.36 170.508C278.066 170.389 277.796 170.211 277.568 169.984C277.34 169.757 277.158 169.485 277.031 169.185C276.904 168.884 276.836 168.56 276.83 168.232C276.825 167.904 276.882 167.577 276.998 167.272C277.114 166.967 277.287 166.688 277.507 166.453C277.727 166.217 277.99 166.029 278.28 165.9C278.571 165.77 278.883 165.702 279.199 165.698C279.515 165.694 279.828 165.755 280.121 165.878L299.827 173.993C300.417 174.234 300.892 174.709 301.145 175.314C301.399 175.918 301.412 176.602 301.181 177.216C301.012 177.693 300.707 178.105 300.306 178.396C299.906 178.688 299.429 178.845 298.94 178.847Z" fill="#FDDD48"/>
<path d="M257.744 200.378C257.445 200.374 257.149 200.315 256.869 200.204L221.088 185.443C220.793 185.324 220.524 185.146 220.296 184.919C220.068 184.692 219.885 184.42 219.758 184.12C219.632 183.819 219.564 183.495 219.558 183.167C219.552 182.839 219.609 182.512 219.725 182.207C219.841 181.902 220.014 181.623 220.235 181.388C220.455 181.152 220.717 180.964 221.008 180.835C221.298 180.705 221.61 180.637 221.926 180.633C222.242 180.629 222.556 180.69 222.849 180.813L258.63 195.524C259.15 195.737 259.581 196.132 259.85 196.64C260.118 197.148 260.208 197.738 260.103 198.308C259.998 198.877 259.705 199.391 259.274 199.76C258.843 200.128 258.302 200.33 257.744 200.328V200.378Z" fill="#FDDD48"/>
<path d="M387.286 88.1411C390.461 94.5756 393.372 101.023 396.139 107.619C398.906 114.215 401.482 120.899 403.734 127.906L404.548 130.556C404.692 131.029 404.896 131.801 405.016 132.349C405.135 132.896 405.243 133.519 405.303 134.041C405.577 136.049 405.717 138.074 405.722 140.102C405.74 143.843 405.572 147.581 405.219 151.304C404.55 158.509 403.462 165.666 401.961 172.735L395.384 171.976C395.301 164.969 395.241 157.887 395.001 150.98C394.893 147.545 394.702 144.098 394.366 140.862C394.214 139.342 393.974 137.833 393.647 136.344C393.588 135.995 393.492 135.734 393.42 135.448C393.348 135.161 393.276 135.062 393.156 134.688L392.246 132.336C389.742 126.039 386.927 119.691 384.052 113.369L375.355 94.4014L387.286 88.1411Z" fill="#E4897B"/>
<path d="M395.48 169.786L392.413 175.747L402.212 178.585C402.212 178.585 404.081 173.793 401.853 170.01L395.48 169.786Z" fill="#E4897B"/>
<path d="M388.664 184.335L397.672 185.082L402.212 178.585L392.414 175.748L388.664 184.335Z" fill="#E4897B"/>
<path d="M346.042 45.1285C345.91 45.8628 345.419 46.373 344.964 46.2735C344.509 46.1739 344.257 45.5143 344.401 44.7924C344.545 44.0706 345.024 43.5479 345.479 43.6474C345.934 43.747 346.198 44.4066 346.042 45.1285Z" fill="#263238"/>
<path d="M345.491 46.373C344.226 48.4092 342.698 50.2559 340.951 51.8617C341.359 52.3125 341.856 52.6662 342.408 52.8982C342.96 53.1303 343.554 53.2352 344.149 53.2058L345.491 46.373Z" fill="#DE5753"/>
<path d="M349.372 41.6559C349.259 41.6529 349.152 41.6038 349.073 41.519C348.729 41.1101 348.297 40.791 347.812 40.5878C347.327 40.3845 346.803 40.3028 346.282 40.3491C346.183 40.3501 346.086 40.3145 346.01 40.2486C345.933 40.1827 345.882 40.0908 345.865 39.9892C345.848 39.8877 345.866 39.7831 345.916 39.694C345.966 39.6049 346.044 39.5372 346.138 39.5028C346.804 39.4151 347.481 39.4999 348.108 39.7496C348.735 39.9993 349.293 40.4062 349.732 40.9341C349.809 41.0155 349.852 41.125 349.852 41.239C349.852 41.353 349.809 41.4625 349.732 41.5439C349.684 41.5895 349.627 41.6233 349.564 41.6427C349.502 41.6621 349.437 41.6666 349.372 41.6559Z" fill="#263238"/>
<path d="M365.856 55.2964C364.598 61.9922 363.34 74.2389 367.844 78.707C367.844 78.707 366.083 85.49 354.116 85.49C340.939 85.49 347.839 78.707 347.839 78.707C355.027 76.9272 354.823 71.3888 353.577 66.1989L365.856 55.2964Z" fill="#E4897B"/>
<path d="M369.653 82.9265C370.6 79.6533 371.642 75.9071 369.486 74.7247C367.09 73.4801 354.068 72.1111 349.576 74.538C345.084 76.965 346.366 83.6235 346.366 83.6235L369.653 82.9265Z" fill="#263238"/>
<path d="M397.277 393.288C396.905 393.339 396.527 393.313 396.165 393.21C395.803 393.108 395.464 392.931 395.169 392.69C395.064 392.54 395.008 392.359 395.008 392.174C395.008 391.989 395.064 391.808 395.169 391.657C395.237 391.529 395.331 391.416 395.445 391.328C395.559 391.24 395.689 391.179 395.828 391.147C397.121 390.848 399.541 392.566 399.649 392.641C399.68 392.668 399.704 392.702 399.719 392.741C399.733 392.781 399.738 392.823 399.733 392.865C399.726 392.905 399.707 392.942 399.679 392.971C399.652 393 399.616 393.019 399.577 393.026C398.821 393.196 398.05 393.284 397.277 393.288ZM396.175 391.545H395.923C395.842 391.563 395.766 391.599 395.7 391.65C395.633 391.702 395.579 391.768 395.54 391.844C395.348 392.193 395.468 392.342 395.54 392.392C395.911 392.914 397.708 392.914 399.026 392.69C398.168 392.102 397.194 391.719 396.175 391.57V391.545Z" fill="#FDDD48"/>
<path d="M399.529 393.064H399.433C398.523 392.541 396.762 390.574 396.941 389.529C396.972 389.367 397.056 389.222 397.178 389.118C397.3 389.013 397.454 388.956 397.612 388.956C397.77 388.939 397.93 388.954 398.082 389.001C398.234 389.048 398.376 389.126 398.499 389.23C399.517 390.101 399.697 392.74 399.697 392.852C399.702 392.891 399.695 392.931 399.678 392.967C399.661 393.002 399.634 393.032 399.601 393.051C399.578 393.061 399.554 393.065 399.529 393.064ZM397.756 389.33H397.708C397.433 389.33 397.409 389.504 397.397 389.554C397.289 390.164 398.415 391.67 399.313 392.379C399.253 391.339 398.894 390.342 398.283 389.516C398.203 389.451 398.11 389.403 398.011 389.375C397.913 389.347 397.81 389.34 397.708 389.355L397.756 389.33Z" fill="#FDDD48"/>
<path d="M344.437 393.288C343.311 393.288 342.221 393.126 341.85 392.603C341.756 392.465 341.705 392.3 341.705 392.131C341.705 391.961 341.756 391.796 341.85 391.658C341.922 391.53 342.019 391.419 342.134 391.331C342.25 391.243 342.381 391.181 342.52 391.147C343.97 390.737 347.06 392.554 347.192 392.628C347.227 392.652 347.255 392.686 347.272 392.726C347.289 392.765 347.295 392.809 347.288 392.852C347.281 392.896 347.261 392.936 347.231 392.967C347.201 392.999 347.162 393.019 347.12 393.027C346.236 393.2 345.337 393.287 344.437 393.288ZM343.035 391.521C342.904 391.501 342.771 391.501 342.64 391.521C342.556 391.538 342.476 391.573 342.406 391.625C342.336 391.676 342.277 391.743 342.233 391.819C342.077 392.093 342.137 392.218 342.233 392.292C342.628 392.865 344.856 392.902 346.509 392.666C345.432 392.062 344.252 391.681 343.035 391.546V391.521Z" fill="#FDDD48"/>
<path d="M347.096 393.064H347.013C345.946 392.578 343.85 390.575 344.006 389.567C344.006 389.318 344.209 389.019 344.784 388.957C344.998 388.923 345.217 388.939 345.424 389.003C345.631 389.068 345.822 389.18 345.982 389.33C347.108 390.276 347.336 392.74 347.348 392.852C347.353 392.89 347.347 392.929 347.333 392.964C347.318 392.999 347.294 393.029 347.264 393.051C347.239 393.066 347.21 393.074 347.182 393.076C347.153 393.078 347.124 393.074 347.096 393.064ZM344.952 389.33H344.82C344.449 389.33 344.425 389.529 344.413 389.579C344.317 390.201 345.755 391.757 346.809 392.429C346.705 391.384 346.286 390.399 345.611 389.616C345.44 389.463 345.226 389.371 345 389.355L344.952 389.33Z" fill="#FDDD48"/>
<path d="M356.776 392.84H347.971L347.096 371.669H355.901L356.776 392.84Z" fill="#E4897B"/>
<path d="M409.616 392.84H400.811L396.391 371.669H405.183L409.616 392.84Z" fill="#E4897B"/>
<path d="M400.188 391.782H410.071C410.247 391.783 410.418 391.847 410.555 391.962C410.692 392.077 410.788 392.237 410.826 392.416L412.563 400.544C412.602 400.742 412.598 400.946 412.551 401.142C412.504 401.339 412.416 401.521 412.291 401.677C412.167 401.832 412.01 401.957 411.833 402.04C411.656 402.124 411.463 402.166 411.269 402.162C407.819 402.099 406.142 401.888 401.793 401.888C399.122 401.888 393.612 402.186 389.91 402.186C386.208 402.186 385.741 398.453 387.251 398.042C394.031 396.499 396.582 394.37 398.751 392.354C399.144 391.984 399.657 391.78 400.188 391.782Z" fill="#FDDD48"/>
<path d="M348.031 391.782H357.614C357.79 391.783 357.961 391.847 358.098 391.962C358.235 392.077 358.331 392.237 358.369 392.416L360.106 400.544C360.147 400.74 360.146 400.943 360.101 401.138C360.056 401.334 359.969 401.516 359.847 401.672C359.725 401.827 359.571 401.952 359.396 402.037C359.22 402.122 359.029 402.164 358.836 402.162C355.374 402.099 350.367 401.888 346.006 401.888C340.915 401.888 336.507 402.186 330.529 402.186C326.935 402.186 325.917 398.453 327.426 398.042C334.314 396.474 339.933 396.312 345.886 392.504C346.52 392.056 347.264 391.805 348.031 391.782Z" fill="#FDDD48"/>
<path d="M343.802 94.762C336.443 94.1696 329.121 93.16 321.868 91.7377C318.274 91.0158 314.609 90.2069 310.967 89.1863C307.234 88.1937 303.569 86.9465 299.994 85.4526C299.072 85.0543 298.137 84.6187 297.215 84.208C296.177 83.6765 295.176 83.0692 294.22 82.3909C292.495 81.2085 291.01 79.9764 289.536 78.7567C286.601 76.2675 283.882 73.7784 281.151 71.227C275.796 66.0744 270.717 60.7476 265.818 55.147L270.226 50.0317L287.608 63.0127C290.471 65.1534 293.37 67.2568 296.221 69.2357C297.634 70.2189 299.084 71.1398 300.413 71.9239C300.969 72.2534 301.546 72.5444 302.138 72.7952C302.845 73.0814 303.564 73.3677 304.319 73.6415C310.793 75.7127 317.414 77.2524 324.12 78.2464C330.96 79.3665 338.028 80.2875 344.856 81.0343L343.802 94.762Z" fill="#E4897B"/>
<path d="M383.597 80.773C391.85 82.7394 400.188 107.793 400.188 107.793L383.213 120.45C383.213 120.45 378.422 108.776 373.798 98.5705C368.958 87.8796 375.163 78.7692 383.597 80.773Z" fill="#45475F"/>
<path d="M378.841 94.4634L375.475 102.292C378.961 110.108 382.147 117.849 382.998 119.915C382.878 110.668 381.189 99.1928 378.841 94.4634Z" fill="#333547"/>
<path d="M334.303 81.2461C334.303 81.2461 324.935 92.2357 333.776 160.277H380.842C381.177 152.81 376.637 116.144 383.597 80.7731C378.394 79.7323 373.133 79.0422 367.844 78.7071C361.181 78.3086 354.502 78.3086 347.839 78.7071C343.27 79.1854 338.744 80.0343 334.303 81.2461Z" fill="#4E5069"/>
<path d="M330.817 94.4634C330.505 97.0397 330.266 100.089 330.11 103.686C334.758 102.236 339.174 100.081 343.215 97.2886L330.817 94.4634Z" fill="#333547"/>
<path d="M350.99 95.8329C344.689 101.633 320.634 101.048 320.634 101.048L319.844 76.853C327.967 78.0551 336.16 78.6706 344.365 78.695C357.77 78.4088 357.866 89.4358 350.99 95.8329Z" fill="#45475F"/>
<path d="M270.454 50.0816L264.464 42.751L258.007 50.2185C258.007 50.2185 261.984 57.1632 268.297 56.068L270.454 50.0816Z" fill="#E4897B"/>
<path d="M255.887 34.2012L253.563 43.772L257.959 50.1692L264.416 42.7515L255.887 34.2012Z" fill="#E4897B"/>
<path d="M347.096 371.682L347.552 382.584H356.356L355.901 371.682H347.096Z" fill="#CE6F64"/>
<path d="M405.195 371.682H396.391L398.667 382.584H407.471L405.195 371.682Z" fill="#CE6F64"/>
<path d="M352.391 36.0927C344.497 32.359 342.005 15.7687 364.718 19.9131C364.718 19.9131 361.292 23.846 368.24 26.3352C375.188 28.8243 369.378 44.1949 352.391 36.0927Z" fill="#263238"/>
<path d="M369.545 48.5387C367.281 57.2508 366.395 62.5527 361.16 66.1993C353.325 71.6755 343.586 65.3903 343.275 56.0933C342.999 47.7422 346.749 34.811 355.793 33.0437C357.789 32.637 359.853 32.7685 361.786 33.4256C363.72 34.0827 365.459 35.2436 366.838 36.7974C368.217 38.3512 369.19 40.2462 369.664 42.3016C370.138 44.357 370.097 46.5043 369.545 48.5387Z" fill="#E4897B"/>
<path d="M364.406 24.2693C369.785 27.3807 377.068 29.2476 376.385 33.6783C375.487 39.0923 380.782 35.707 379.548 43.7594C378.745 49.024 369.401 64.9796 362.777 64.2079C352.882 62.9633 354.14 47.3314 354.104 39.0923C354.08 34.2259 353.865 18.1335 364.406 24.2693Z" fill="#263238"/>
<path d="M352.918 31.2515C350.522 31.8364 347.348 46.1864 356.632 47.5057C367.305 49.0116 352.918 31.2515 352.918 31.2515Z" fill="#263238"/>
<path d="M353.158 36.3418C350.223 36.6156 343.574 32.9441 344.389 27.4181C344.389 27.3808 348.594 33.8775 353.158 36.3418Z" fill="#263238"/>
<path d="M357.518 48.6506C356.617 50.7027 355.088 52.3874 353.17 53.4423C350.642 54.8113 349.217 52.82 349.792 50.1815C350.307 47.8168 352.247 44.2448 354.847 43.9586C357.446 43.6723 358.56 46.1615 357.518 48.6506Z" fill="#E4897B"/>
<path d="M370.695 38.5818C372.486 37.7746 374.055 36.5188 375.263 34.9266C376.472 33.3345 377.281 31.4559 377.619 29.459C377.619 29.459 381.572 40.8718 370.695 38.5818Z" fill="#263238"/>
<path d="M380.686 38.395C379.852 37.8133 378.893 37.4554 377.894 37.3533C376.895 37.2513 375.887 37.4082 374.96 37.81C374.96 37.81 378.65 32.8442 380.686 38.395Z" fill="#263238"/>
<path d="M350.474 160.277C350.474 160.277 360.465 230.148 365.939 256.322C371.929 284.947 394.57 380.481 394.57 380.481H410.682C410.682 380.481 395.768 287.299 392.342 258.873C388.628 228.07 380.842 160.228 380.842 160.228L350.474 160.277Z" fill="#FDDD48"/>
<path opacity="0.5" d="M350.474 160.277C350.474 160.277 360.465 230.148 365.939 256.322C371.929 284.947 394.57 380.481 394.57 380.481H410.682C410.682 380.481 395.768 287.299 392.342 258.873C388.628 228.07 380.842 160.228 380.842 160.228L350.474 160.277Z" fill="white"/>
<path d="M391.994 374.308C391.922 374.308 393.659 380.743 393.659 380.743H411.796L411.46 375.005L391.994 374.308Z" fill="#FDDD48"/>
<path opacity="0.1" d="M391.994 374.308C391.922 374.308 393.659 380.743 393.659 380.743H411.796L411.46 375.005L391.994 374.308Z" fill="black"/>
<path d="M356.787 185.169C368.335 187.521 367.113 232.264 365.724 255.276C362.394 239.01 357.518 207.708 354.188 185.492C354.994 185.08 355.911 184.966 356.787 185.169Z" fill="#FDDD48"/>
<path opacity="0.4" d="M356.787 185.169C368.335 187.521 367.113 232.264 365.724 255.276C362.394 239.01 357.518 207.708 354.188 185.492C354.994 185.08 355.911 184.966 356.787 185.169Z" fill="white"/>
<path d="M333.775 160.277C333.775 160.277 332.578 228.629 333.524 256.52C334.518 285.519 344.305 380.481 344.305 380.481H359.207C359.207 380.481 359.758 287.212 360.405 258.736C361.136 227.683 364.742 160.277 364.742 160.277H333.775Z" fill="#FDDD48"/>
<path opacity="0.5" d="M333.775 160.277C333.775 160.277 332.578 228.629 333.524 256.52C334.518 285.519 344.305 380.481 344.305 380.481H359.207C359.207 380.481 359.758 287.212 360.405 258.736C361.136 227.683 364.742 160.277 364.742 160.277H333.775Z" fill="white"/>
<path d="M347.396 369.354C347.36 369.355 347.325 369.341 347.298 369.315C347.272 369.29 347.255 369.255 347.252 369.217C344.617 342.932 338.423 279.334 337.669 256.521C336.866 233.234 337.597 180.987 337.836 165.529C337.836 165.49 337.852 165.452 337.879 165.424C337.906 165.396 337.942 165.38 337.98 165.38C338.02 165.38 338.057 165.395 338.086 165.423C338.115 165.45 338.133 165.489 338.136 165.529C337.896 180.987 337.166 233.234 337.968 256.508C338.747 279.321 344.94 342.895 347.552 369.18C347.552 369.222 347.538 369.263 347.511 369.295C347.485 369.327 347.448 369.348 347.408 369.354H347.396Z" fill="#FDDD48"/>
<path opacity="0.4" d="M347.396 369.354C347.36 369.355 347.325 369.341 347.298 369.315C347.272 369.29 347.255 369.255 347.252 369.217C344.617 342.932 338.423 279.334 337.669 256.521C336.866 233.234 337.597 180.987 337.836 165.529C337.836 165.49 337.852 165.452 337.879 165.424C337.906 165.396 337.942 165.38 337.98 165.38C338.02 165.38 338.057 165.395 338.086 165.423C338.115 165.45 338.133 165.489 338.136 165.529C337.896 180.987 337.166 233.234 337.968 256.508C338.747 279.321 344.94 342.895 347.552 369.18C347.552 369.222 347.538 369.263 347.511 369.295C347.485 369.327 347.448 369.348 347.408 369.354H347.396Z" fill="white"/>
<path d="M341.406 374.308C341.346 374.308 342.257 380.743 342.257 380.743H360.381L360.872 375.005L341.406 374.308Z" fill="#FDDD48"/>
<path opacity="0.1" d="M341.406 374.308C341.346 374.308 342.257 380.743 342.257 380.743H360.381L360.872 375.005L341.406 374.308Z" fill="black"/>
<g clip-path="url(#clip1)">
<line x1="433.177" y1="12.8232" x2="439.552" y2="19.1982" stroke="#EBEBF0" stroke-width="0.5"/>
<line y1="-0.25" x2="9.01561" y2="-0.25" transform="matrix(-0.707107 0.707107 0.707107 0.707107 439.375 13)" stroke="#EBEBF0" stroke-width="0.5"/>
<line x1="433.177" y1="20.438" x2="439.552" y2="26.813" stroke="#EBEBF0" stroke-width="0.5"/>
<line y1="-0.25" x2="9.01561" y2="-0.25" transform="matrix(-0.707107 0.707107 0.707107 0.707107 439.375 20.6147)" stroke="#EBEBF0" stroke-width="0.5"/>
<line x1="443.802" y1="12.8232" x2="450.177" y2="19.1982" stroke="#EBEBF0" stroke-width="0.5"/>
<line y1="-0.25" x2="9.01561" y2="-0.25" transform="matrix(-0.707107 0.707107 0.707107 0.707107 450 13)" stroke="#EBEBF0" stroke-width="0.5"/>
<line x1="443.802" y1="20.438" x2="450.177" y2="26.813" stroke="#EBEBF0" stroke-width="0.5"/>
<line y1="-0.25" x2="9.01561" y2="-0.25" transform="matrix(-0.707107 0.707107 0.707107 0.707107 450 20.6147)" stroke="#EBEBF0" stroke-width="0.5"/>
</g>
</g>
<defs>
<clipPath id="clip0">
<rect width="460" height="402" fill="white"/>
</clipPath>
<clipPath id="clip1">
<rect x="432" y="12" width="18.0217" height="14.2276" fill="white"/>
</clipPath>
</defs>
</svg>
